<svg width="16" height="16" viewBox="0 0 16 16" fill="none" xmlns="http://www.w3.org/2000/svg">
<path d="M8 2.66666C5.05447 2.66666 2.66666 5.05447 2.66666 8C2.66666 10.9455 5.05447 13.3333 8 13.3333C10.9455 13.3333 13.3333 10.9455 13.3333 8C13.3333 5.05447 10.9455 2.66666 8 2.66666ZM1.33333 8C1.33333 4.31809 4.31809 1.33333 8 1.33333C11.6819 1.33333 14.6667 4.31809 14.6667 8C14.6667 11.6819 11.6819 14.6667 8 14.6667C4.31809 14.6667 1.33333 11.6819 1.33333 8Z" fill="#1DC066"/>
<path fill-rule="evenodd" clip-rule="evenodd" d="M11.1381 5.86193C11.3984 6.12228 11.3984 6.54439 11.1381 6.80474L7.80474 10.1381C7.54439 10.3984 7.12228 10.3984 6.86193 10.1381L4.86193 8.13808C4.60158 7.87773 4.60158 7.45562 4.86193 7.19527C5.12228 6.93492 5.54439 6.93492 5.80474 7.19527L7.33334 8.72386L10.1953 5.86193C10.4556 5.60158 10.8777 5.60158 11.1381 5.86193Z" fill="#1DC066"/>
</svg>
