<svg width="60" height="61" viewBox="0 0 60 61" fill="none" xmlns="http://www.w3.org/2000/svg">
<g clip-path="url(#clip0_2_28)">
<rect x="12.4999" y="12.9637" width="35" height="35" fill="url(#paint0_linear_2_28)"/>
<path d="M60.0001 30.4637C60.0001 38.4202 56.8394 46.0509 51.2133 51.6769C45.5872 57.303 37.9566 60.4637 30.0001 60.4637C22.0436 60.4637 14.4129 57.303 8.78686 51.6769C3.16077 46.0509 6.10352e-05 38.4202 6.10352e-05 30.4637C6.10352e-05 22.5072 3.16077 14.8766 8.78686 9.25054C14.4129 3.62445 22.0436 0.463745 30.0001 0.463745C37.9566 0.463745 45.5872 3.62445 51.2133 9.25054C56.8394 14.8766 60.0001 22.5072 60.0001 30.4637ZM25.4626 19.5625C25.1822 19.3629 24.8523 19.2443 24.509 19.2197C24.1657 19.1951 23.8223 19.2655 23.5163 19.4231C23.2104 19.5807 22.9537 19.8195 22.7745 20.1133C22.5952 20.4071 22.5003 20.7446 22.5001 21.0887V39.8387C22.5003 40.1829 22.5952 40.5204 22.7745 40.8142C22.9537 41.108 23.2104 41.3468 23.5163 41.5044C23.8223 41.662 24.1657 41.7324 24.509 41.7078C24.8523 41.6832 25.1822 41.5646 25.4626 41.365L38.5876 31.99C38.8306 31.8165 39.0287 31.5876 39.1654 31.3221C39.3021 31.0566 39.3734 30.7623 39.3734 30.4637C39.3734 30.1651 39.3021 29.8709 39.1654 29.6054C39.0287 29.3399 38.8306 29.1109 38.5876 28.9375L25.4626 19.5625Z" fill="white"/>
</g>
<defs>
<linearGradient id="paint0_linear_2_28" x1="12.4999" y1="12.9637" x2="47.4999" y2="47.9637" gradientUnits="userSpaceOnUse">
<stop stop-color="#F9EC7D"/>
<stop offset="1" stop-color="#F5B100"/>
</linearGradient>
<clipPath id="clip0_2_28">
<rect width="60" height="60" fill="white" transform="translate(0 0.463745)"/>
</clipPath>
</defs>
</svg>
