<svg width="20" height="20" viewBox="0 0 20 20" fill="none" xmlns="http://www.w3.org/2000/svg">
<path d="M9.99997 1.25069C11.9891 1.25069 13.8967 2.04086 15.3033 3.44739C16.7098 4.85391 17.5 6.76156 17.5 8.75069C17.5 12.3344 15.0812 15.6332 10.335 18.6532C10.2348 18.7168 10.1186 18.7505 9.99997 18.7505C9.88132 18.7505 9.76513 18.7168 9.66497 18.6532C4.91872 15.6332 2.49997 12.3344 2.49997 8.75069C2.49997 6.76156 3.29015 4.85391 4.69667 3.44739C6.10319 2.04086 8.01084 1.25069 9.99997 1.25069V1.25069ZM9.99997 6.25069C9.33693 6.25069 8.70104 6.51408 8.2322 6.98292C7.76336 7.45176 7.49997 8.08764 7.49997 8.75069C7.49997 9.41373 7.76336 10.0496 8.2322 10.5185C8.70104 10.9873 9.33693 11.2507 9.99997 11.2507C10.663 11.2507 11.2989 10.9873 11.7677 10.5185C12.2366 10.0496 12.5 9.41373 12.5 8.75069C12.5 8.08764 12.2366 7.45176 11.7677 6.98292C11.2989 6.51408 10.663 6.25069 9.99997 6.25069V6.25069Z" fill="white"/>
</svg>
