<svg width="16" height="18" viewBox="0 0 16 18" fill="none" xmlns="http://www.w3.org/2000/svg">
<path d="M7.99997 0.250687C9.98909 0.250687 11.8967 1.04086 13.3033 2.44739C14.7098 3.85391 15.5 5.76156 15.5 7.75069C15.5 11.3344 13.0812 14.6332 8.33497 17.6532C8.2348 17.7168 8.11861 17.7505 7.99997 17.7505C7.88132 17.7505 7.76513 17.7168 7.66497 17.6532C2.91872 14.6332 0.499969 11.3344 0.499969 7.75069C0.499969 5.76156 1.29015 3.85391 2.69667 2.44739C4.10319 1.04086 6.01084 0.250687 7.99997 0.250687ZM7.99997 5.25069C7.33693 5.25069 6.70104 5.51408 6.2322 5.98292C5.76336 6.45176 5.49997 7.08764 5.49997 7.75069C5.49997 8.41373 5.76336 9.04961 6.2322 9.51845C6.70104 9.98729 7.33693 10.2507 7.99997 10.2507C8.66301 10.2507 9.29889 9.98729 9.76773 9.51845C10.2366 9.04961 10.5 8.41373 10.5 7.75069C10.5 7.08764 10.2366 6.45176 9.76773 5.98292C9.29889 5.51408 8.66301 5.25069 7.99997 5.25069Z" fill="white"/>
</svg>
