<svg width="16" height="16" viewBox="0 0 16 16" fill="none" xmlns="http://www.w3.org/2000/svg">
<path d="M11.9446 9.54663C11.7719 9.71396 11.6926 9.95596 11.7319 10.1933L12.3246 13.4733C12.3746 13.7513 12.2573 14.0326 12.0246 14.1933C11.7966 14.36 11.4933 14.38 11.2446 14.2466L8.29195 12.7066C8.18928 12.652 8.07528 12.6226 7.95862 12.6193H7.77795C7.71528 12.6286 7.65395 12.6486 7.59795 12.6793L4.64462 14.2266C4.49862 14.3 4.33328 14.326 4.17128 14.3C3.77662 14.2253 3.51328 13.8493 3.57795 13.4526L4.17128 10.1726C4.21062 9.93329 4.13128 9.68996 3.95862 9.51996L1.55128 7.18663C1.34995 6.99129 1.27995 6.69796 1.37195 6.43329C1.46128 6.16929 1.68928 5.97663 1.96462 5.93329L5.27795 5.45263C5.52995 5.42663 5.75128 5.27329 5.86462 5.04663L7.32462 2.05329C7.35928 1.98663 7.40395 1.92529 7.45795 1.87329L7.51795 1.82663C7.54928 1.79196 7.58528 1.76329 7.62528 1.73996L7.69795 1.71329L7.81128 1.66663H8.09195C8.34262 1.69263 8.56328 1.84263 8.67862 2.06663L10.1579 5.04663C10.2646 5.26463 10.4719 5.41596 10.7113 5.45263L14.0246 5.93329C14.3046 5.97329 14.5386 6.16663 14.6313 6.43329C14.7186 6.70063 14.6433 6.99396 14.4379 7.18663L11.9446 9.54663Z" fill="white"/>
</svg>
